<svg width="46" height="45" viewBox="0 0 46 45" fill="none" xmlns="http://www.w3.org/2000/svg">
<g clip-path="url(#clip0_7650_7320)">
<path d="M20.6748 27.0049C20.5927 27.0551 20.5138 27.1102 20.4385 27.1699C20.3604 27.234 20.2912 27.3083 20.2327 27.3907C20.1672 27.46 20.1123 27.5388 20.07 27.6243C20.0347 27.718 20.0064 27.8141 19.9852 27.912C19.9247 28.0993 19.909 28.2982 19.9392 28.4927C19.9512 28.6903 20.0065 28.8828 20.1012 29.0567C20.1959 29.2305 20.3277 29.3814 20.4872 29.4986C20.637 29.6255 20.8116 29.7197 20.9999 29.7752C21.1882 29.8307 21.386 29.8463 21.5807 29.8209C21.7783 29.8089 21.9708 29.7536 22.1447 29.6589C22.3185 29.5642 22.4694 29.4324 22.5866 29.2729C22.7021 29.1168 22.7861 28.9397 22.8341 28.7516C22.891 28.5626 22.91 28.3641 22.8901 28.1677C22.8701 27.9713 22.8116 27.7808 22.7179 27.6071C22.6239 27.4328 22.4963 27.2788 22.3425 27.1541C22.1887 27.0294 22.0117 26.9364 21.8217 26.8804C21.6318 26.8244 21.4327 26.8066 21.2358 26.828C21.0389 26.8494 20.8483 26.9095 20.6748 27.0049ZM27.3316 8.18407C24.4859 7.34544 21.4554 7.36949 18.6233 8.25318C15.7913 9.13688 13.2849 10.8405 11.421 13.1487C9.55723 15.4569 8.41973 18.2659 8.15238 21.2205C7.88503 24.1752 8.49984 27.1428 9.91906 29.748C11.3383 32.3532 13.4982 34.4791 16.1256 35.8568C18.753 37.2345 21.73 37.8021 24.68 37.4879C27.6301 37.1737 30.4207 35.9918 32.699 34.0916C34.9773 32.1914 36.6409 29.6582 37.4796 26.8125C38.0364 24.923 38.2156 22.9424 38.007 20.9836C37.7984 19.0249 37.206 17.1264 36.2636 15.3966C35.3213 13.6668 34.0475 12.1395 32.5149 10.902C30.9824 9.66445 29.2211 8.74091 27.3316 8.18407ZM19.6992 34.0828C17.4226 33.4119 15.3961 32.081 13.8759 30.2584C12.3558 28.4357 11.4102 26.2032 11.1588 23.8432C10.9075 21.4832 11.3616 19.1016 12.4637 16.9997C13.5659 14.8977 15.2666 13.1698 17.3508 12.0344C19.435 10.8991 21.809 10.4072 24.1728 10.6211C26.5365 10.835 28.7837 11.745 30.6302 13.236C32.4768 14.7271 33.8397 16.7322 34.5466 18.9978C35.2536 21.2635 35.2728 23.6879 34.6019 25.9645C33.7023 29.0173 31.6267 31.5876 28.8319 33.1101C26.0371 34.6326 22.752 34.9825 19.6992 34.0828ZM25.2115 15.3782C24.4534 15.1543 23.6498 15.1339 22.8814 15.3193C22.1131 15.5046 21.4071 15.8891 20.8345 16.434C20.6821 16.567 20.5583 16.7296 20.4703 16.9118C20.3824 17.094 20.3323 17.2921 20.3229 17.4941C20.3135 17.6962 20.3451 17.8981 20.4158 18.0877C20.4864 18.2772 20.5947 18.4505 20.7341 18.5972C20.8735 18.7438 21.0411 18.8607 21.2268 18.9409C21.4126 19.021 21.6126 19.0628 21.8149 19.0637C22.0172 19.0645 22.2176 19.0244 22.404 18.9459C22.5904 18.8673 22.759 18.7518 22.8996 18.6063C23.0911 18.4241 23.3273 18.2957 23.5844 18.2342C23.8414 18.1726 24.1102 18.1801 24.3634 18.2558C24.745 18.3683 25.0663 18.6277 25.2566 18.9771C25.4469 19.3264 25.4907 19.7371 25.3782 20.1187C25.2658 20.5003 25.0063 20.8216 24.657 21.0119C24.3076 21.2022 23.897 21.2459 23.5154 21.1335C23.1338 21.021 22.7231 21.0647 22.3738 21.2551C22.0244 21.4454 21.765 21.7667 21.6525 22.1483L21.2285 23.5871C21.116 23.9687 21.1598 24.3793 21.3501 24.7287C21.5404 25.078 21.8617 25.3375 22.2433 25.4499C22.6249 25.5624 23.0355 25.5186 23.3849 25.3283C23.7342 25.138 23.9937 24.8167 24.1061 24.4351L24.1825 24.1761C25.2358 24.1113 26.2329 23.6783 26.9993 22.9528C27.7658 22.2274 28.2529 21.2556 28.3755 20.2074C28.4981 19.1592 28.2484 18.1012 27.67 17.2185C27.0916 16.3357 26.2214 15.6843 25.2115 15.3782Z" fill="#1B1B1B"/>
</g>
<defs>
<clipPath id="clip0_7650_7320">
<rect width="36" height="36" fill="white" transform="translate(10.9141 0.218262) rotate(16.4203)"/>
</clipPath>
</defs>
</svg>
