<svg width="122" height="121" viewBox="0 0 122 121" fill="none" xmlns="http://www.w3.org/2000/svg">
<path fill-rule="evenodd" clip-rule="evenodd" d="M68.7121 5.48242C79.5766 5.48242 92.6121 10.7605 93.7204 10.8661L93.7503 10.8677C94.3335 10.8677 96.6119 12.6072 100.586 16.0862L96.2816 24.4988L96.63 24.8321C98.2967 26.4335 99.7197 27.8932 100.843 29.0438C110.014 38.4389 111.662 75.3267 109.501 88.1907C107.339 101.055 103.336 113.642 84.6999 113.642C66.0635 113.642 45.3301 102.413 42.1362 98.916C40.007 96.5847 37.6153 95.4678 34.9611 95.5653C34.8521 95.4273 34.7439 95.2898 34.6365 95.1527L34.246 95.0972C30.5728 94.5641 27.9408 93.8465 26.3502 92.9448C23.2433 91.1833 19.8284 81.9232 19.8284 79.8833C19.8284 77.8639 14.7293 63.1728 14.6273 61.6182L14.6258 61.5751C14.6258 60.2755 7.96432 54.3011 7.96432 52.4038C7.96432 50.5065 6.62159 50.6216 7.96432 43.9357L8.35442 41.9716C9.78329 34.8531 12.58 23.0659 23.2433 17.944C34.9611 12.3155 57.7378 5.48242 68.7121 5.48242Z" fill="white"/>
<path fill-rule="evenodd" clip-rule="evenodd" d="M68.7099 5.55408C79.5745 5.55408 92.61 10.8322 93.7183 10.9377L93.7482 10.9394C94.3313 10.9394 96.6098 12.6789 100.584 16.1579L99.6176 18.0448C78.2264 18.4657 63.5032 20.208 55.448 23.2715C46.1096 26.823 40.2473 40.3159 37.8613 63.75C34.5985 65.2985 31.3358 67.3366 28.0731 69.8643C24.8104 72.392 23.9845 73.6975 25.5954 73.781C25.4551 79.1979 25.8876 82.9807 26.8931 85.1295C27.8985 87.2782 31.3787 88.5427 37.3336 88.923L38.8464 93.9999L38.6372 96.3528C37.4729 95.8282 36.2469 95.5896 34.959 95.6369C34.8499 95.499 34.7417 95.3615 34.6344 95.2243L34.2439 95.1689C30.5706 94.6358 27.9386 93.9182 26.348 93.0164C23.2411 91.255 19.8263 81.9949 19.8263 79.955C19.8263 77.9355 14.7272 63.2445 14.6252 61.6898L14.6236 61.6468C14.6236 60.3471 7.96218 54.3728 7.96218 52.4755C7.96218 50.5781 6.61946 50.6932 7.96218 44.0074L8.35228 42.0432C9.78116 34.9247 12.5778 23.1375 23.2411 18.0156C34.959 12.3872 57.7356 5.55408 68.7099 5.55408Z" fill="#B4B4B4"/>
<path fill-rule="evenodd" clip-rule="evenodd" d="M21.4342 17.6799C27.2783 11.4637 60.4561 1.84891 77.2416 3.88702L77.7452 3.95237C79.0847 4.12259 80.4048 4.38036 81.7077 4.73054C85.9189 5.71615 90.269 7.20854 93.7486 9.70138C96.6535 11.7407 105.817 15.071 103.116 20.4059C104.118 22.3073 104.492 24.6564 103.815 26.5292C103.73 27.176 103.531 27.7718 103.276 28.3895C105.416 31.5535 107.11 35.1316 108.481 38.5349C110.877 47.1 112.369 56.0135 112.587 64.7521C113.314 81.3545 111.497 101.186 97.0675 111.922C88.3507 118.725 74.6964 118.953 64.9006 110.518C64.3447 109.859 61.7304 108.08 62.6028 107.768C62.8625 108.043 63.1294 108.31 63.4012 108.573C63.3888 108.544 63.3864 108.515 63.3915 108.483L63.1359 108.251C62.6545 107.805 62.0308 107.158 62.7411 107.284C62.7724 107.321 62.8067 107.352 62.8404 107.389C62.9908 107.479 63.1045 107.558 63.1929 107.627L63.2384 107.663L63.2243 107.649C62.8152 107.211 62.5699 106.765 63.1816 107.05L63.2626 107.09C63.5347 107.377 63.8111 107.651 64.0926 107.919C64.0879 107.887 64.0926 107.856 64.1098 107.822L63.8473 107.568C63.5911 107.316 63.6302 107.315 63.7555 107.112C63.2109 106.347 64.2275 106.801 64.2988 107.099C64.9348 106.949 65.4932 108.145 65.9028 108.291C83.8599 122.125 109.919 109.85 109.497 71.3L109.491 70.5457C109.367 58.2191 108.332 45.5496 103.244 34.3911C102.75 33.3163 102.196 32.2706 101.587 31.259C101.167 30.5003 100.718 29.761 100.236 29.0412C98.8837 28.9318 97.549 28.6837 96.234 28.2995C95.7824 28.1852 95.3359 28.0588 94.8896 27.9104C88.3667 28.2669 81.9892 28.6548 75.4481 29.0225L73.405 29.15C67.8639 29.507 62.1334 30.0787 57.6619 33.5133C53.2745 36.6401 53.2546 42.8059 49.4988 46.2389C44.1432 49.8814 44.1041 53.1661 43.0728 58.534C43.1492 62.5805 45.9491 68.4599 40.8111 70.1628C41.6779 71.4014 40.4697 70.8063 40.3746 70.372C40.3649 70.3744 40.3552 70.3768 40.3479 70.3768C41.1203 71.8157 39.9848 70.9097 39.8844 70.4474C39.8237 70.4303 39.7631 70.3866 39.7024 70.3258C40.4806 71.5864 39.2226 70.7037 39.2971 70.4741C37.7933 68.1578 34.6984 67.7982 32.5168 68.412C32.4901 68.4946 32.3933 68.5019 32.3326 68.4582C23.0562 70.4727 25.4496 89.7169 34.9558 87.8566C35.3628 87.7734 35.3531 87.9692 35.4339 87.9879C35.2143 87.4101 35.8333 87.6453 35.8268 87.7666L35.8645 87.7648C35.8944 87.7621 35.8821 87.7589 35.9044 87.7666C35.6921 86.585 36.887 88.297 36.7926 88.3673C36.8292 88.3454 36.8705 88.3332 36.9069 88.3284L36.8657 88.2162C36.6674 87.6868 36.6844 87.9068 36.6858 87.6037C36.5368 87.229 36.5259 87.3929 36.5608 87.1487C37.0845 86.7421 37.2391 87.9755 37.4138 88.0657C37.1143 87.6475 37.3524 87.3058 37.6349 87.5329C39.7759 92.0458 42.5416 96.2862 46.1158 99.6265C46.5068 99.9353 46.9023 100.239 47.3122 100.526C48.8325 101.853 51.1645 102.707 52.5877 103.882C52.5877 103.902 52.5783 103.926 52.5637 103.95L52.5963 103.98L52.6292 104.011L53.1243 104.249C53.2699 104.373 53.4009 104.512 53.5171 104.665C53.6411 104.809 53.7501 104.967 53.8426 105.134C53.8887 105.339 53.7867 105.424 53.5926 105.336C53.5074 105.307 53.4227 105.273 53.3378 105.241C53.3427 105.249 53.3449 105.254 53.3499 105.259C53.3778 105.301 53.5663 105.739 53.3491 105.667L53.3233 105.657C53.2041 105.614 53.0854 105.565 52.969 105.519C53.1073 105.691 53.2332 105.879 53.3449 106.037C53.464 106.161 53.5366 106.307 53.5659 106.472C53.5608 106.564 53.5101 106.603 53.4179 106.591C53.2771 106.545 53.1388 106.496 53.0003 106.445L53.0397 106.521C53.1376 106.714 53.2767 107.037 53.0296 106.929C52.8183 106.863 52.6147 106.788 52.4108 106.705C52.3936 106.739 52.3599 106.752 52.2919 106.72C51.644 106.489 51.0179 106.207 50.4185 105.874C49.892 105.49 49.3603 105.113 48.8315 104.731C48.3338 104.432 47.8533 104.099 47.3949 103.724C44.3262 101.738 41.6396 99.2145 39.5083 96.4043C35.9437 99.4978 28.8169 96.5425 24.4083 94.1209C20.5089 91.9566 18.9762 87.9548 18.58 83.6403C17.7561 77.8318 13.0193 75.8435 13.3488 63.0985C13.3415 63.1009 13.334 63.1009 13.3243 63.1009C13.152 63.0499 12.9848 62.9818 12.8271 62.8942C12.6645 62.8164 12.5116 62.724 12.3682 62.6121L12.191 62.3665C12.0991 62.3154 12.0166 62.2619 11.9535 62.2085L11.9208 62.2507C11.8172 62.376 11.8868 62.1875 11.8928 62.1501L11.5851 61.7307C10.8554 60.7324 10.0549 59.6122 9.40281 58.7164L9.38227 58.7528C9.36752 58.7803 9.35972 58.8001 9.36665 58.8088C7.8148 56.5745 6.3554 53.8757 5.94991 51.2629C5.47112 49.2504 5.65822 47.1766 6.07585 45.3123C7.86649 38.7842 13.7322 24.0115 21.4342 17.6799ZM63.5484 107.961L63.4512 107.874L63.5367 107.982C63.5815 108.037 63.6274 108.087 63.7021 108.138C63.6973 108.121 63.6973 108.104 63.6994 108.084C63.6499 108.046 63.5992 108.005 63.5484 107.961ZM77.1674 7.1672C65.7844 6.18646 54.5885 8.69948 43.7263 11.7414L42.977 11.9572C36.8006 13.7233 30.2697 15.3125 25.0502 19.0927C17.7578 24.69 13.9921 33.5943 10.7059 41.8154C7.8364 47.9236 9.30331 54.8112 13.6276 59.0763C14.0775 54.8379 14.8446 50.7236 16.0434 46.6423C16.2936 46.0047 16.1043 45.7958 16.6435 45.7126C17.4579 56.7111 13.4468 64.8372 21.3845 77.8721C24.8286 84.0226 20.8416 88.5229 30.5677 91.7594L30.8309 91.8602C32.8572 92.6264 35.07 93.2312 37.0547 92.8029L36.8768 92.513C36.6955 92.2146 36.6405 92.0697 36.9042 91.942C36.8972 91.9274 36.8875 91.9128 36.8775 91.8958C36.6642 91.4921 36.4579 91.0836 36.2611 90.6702C36.1813 90.6969 36.1012 90.7164 36.0185 90.7383C36.0721 90.838 36.0791 90.9377 35.9289 90.9717C35.3942 91.1556 34.8451 91.2292 34.283 91.1948L34.1623 91.1857C33.5273 91.1468 33.1271 91.0308 32.7692 90.9231C32.6505 90.9036 32.5316 90.8842 32.4149 90.8599C31.2634 90.604 30.0445 89.9533 29.2556 89.3084C20.2629 84.1899 21.1923 66.7664 32.2768 65.1193C32.5042 54.149 37.7111 35.6411 46.3524 25.1875C54.1634 15.572 75.4874 11.4044 90.3231 12.8739C90.5393 12.9456 90.7555 13.0181 90.9717 13.0913C93.2606 13.2951 95.4419 14.3169 97.7324 14.7916C96.0879 13.5565 94.2223 12.7338 92.3006 12.0347C88.4718 9.68776 84.0825 8.41787 79.8419 7.52224C78.9634 7.30581 78.0728 7.18666 77.1674 7.1672ZM31.7695 73.9321C32.3654 73.6077 32.2972 73.9209 32.4344 73.83C36.7213 73.4796 41.3439 77.2408 43.7402 80.3764C43.5509 80.5733 43.0389 79.9897 42.9491 79.8973C42.937 79.9095 42.9224 79.9192 42.9078 79.924L42.9746 80.0184C43.9458 81.4152 42.0204 79.7716 41.8401 79.4328C41.8086 79.4498 41.777 79.4596 41.7406 79.4523C41.8933 79.6023 42.3594 79.9936 42.4395 80.2718L42.5631 80.3749C43.7285 81.3749 43.6317 82.1272 42.3087 80.7071C42.34 80.7728 42.3521 80.8335 42.3303 80.8822L42.3758 80.9126C43.0264 81.3682 43.5615 82.6383 42.2017 81.3345C42.3432 82.2868 40.8542 80.4462 40.8063 80.459C38.2297 78.4321 34.4361 76.4609 31.204 76.1961L31.0928 76.1833C30.4997 76.1069 30.2193 75.9306 30.4275 75.542C29.6971 75.3678 29.8682 75.0074 30.214 75.0191C29.6988 74.6796 30.1625 74.355 30.4615 74.4817C30.2559 73.9114 31.0803 74.2913 31.1555 74.2118C31.5833 73.5506 31.6986 74.1021 31.7695 73.9321ZM22.7835 38.586C24.8426 37.8302 30.9245 40.0927 30.438 43.0892C30.1482 43.7771 29.1936 44.1713 28.5226 43.783L27.6469 43.1936C26.1228 42.1707 24.7483 41.2739 23.1121 40.3819C22.2215 39.939 21.8381 38.9989 22.7835 38.586ZM34.4982 34.1331L33.703 33.6145C29.4117 30.8 23.3453 26.5354 34.1039 30.9477C35.3301 31.4746 36.9594 31.7864 37.6284 32.9566C38.6794 35.1133 35.9135 35.2583 34.4982 34.1331ZM34.9805 21.505C34.6361 20.1955 38.9209 21.7321 40.1682 22.1373L40.3582 22.2092C41.5715 22.6622 42.9623 23.0825 43.6881 24.1318C44.5384 25.5817 42.8174 25.882 41.7513 25.2271C39.5656 23.7957 37.1693 22.7158 34.9805 21.505ZM45.8763 15.4049C43.4645 12.7655 49.9191 15.2939 50.8859 15.9958L50.9135 16.0165C51.635 16.5254 51.4887 17.6217 50.8109 17.9437C48.8824 17.9804 47.4633 16.3696 45.8763 15.4049ZM56.8511 12.5132C53.017 9.75186 58.0676 11.0653 59.8218 12.1474C61.0174 13.204 59.7859 14.9878 56.8511 12.5132Z" fill="#333333"/>
<path fill-rule="evenodd" clip-rule="evenodd" d="M70.7905 91.0946C72.0878 88.5007 78.6853 87.7867 90.5832 88.9526L92.0907 101.32C86.3499 103.166 81.7709 103.895 78.3536 103.508C73.2278 102.928 68.8447 94.9855 70.7905 91.0946Z" fill="white"/>
<path fill-rule="evenodd" clip-rule="evenodd" d="M72.0477 97.5903C71.4314 96.2714 84.1899 92.6747 88.1401 95.1325C90.7736 96.7711 91.6786 98.7078 90.8552 100.943C79.7788 103.469 73.5096 102.352 72.0477 97.5903Z" fill="#B4B4B4"/>
<path fill-rule="evenodd" clip-rule="evenodd" d="M69.6836 88.792C72.6615 85.3316 77.6771 85.0906 81.8318 85.9558C84.4981 86.5112 87.094 87.4363 89.8021 87.7792C91.0668 87.9394 92.3452 87.9873 93.6192 87.9638C94.8706 87.9407 96.124 87.6885 97.371 87.7354C97.5626 87.7425 97.6351 87.9942 97.469 88.0965C95.7583 89.1473 93.4536 89.4844 91.4328 89.6898C91.4391 89.8394 91.4481 89.9853 91.4688 90.1091C91.524 90.4391 91.5744 90.7669 91.615 91.0991C91.7066 91.8483 91.8093 92.5951 91.9116 93.3429C92.1135 94.8146 92.1769 96.3327 92.5318 97.7789L92.5938 98.0192C92.676 98.3232 92.6947 98.5973 92.6672 98.8443L92.7494 98.8071L93.009 98.6814L93.1792 98.6011C93.8003 98.3131 94.3929 98.1035 95.1231 98.1734C95.679 98.2264 96.1456 98.6055 96.149 99.1991C96.1629 101.863 92.5726 102.72 90.5189 103.23L89.9167 103.378C87.3026 104.016 84.6337 104.575 81.9452 104.708C77.6307 104.923 72.7824 103.732 69.9601 100.233C67.3267 96.9677 66.844 92.0915 69.6836 88.792ZM89.2768 99.9851C88.8241 95.9742 83.8952 95.7537 82.4773 98.2972C81.8481 94.7518 72.5402 97.9908 73.268 98.6955C76.0267 101.367 80.213 101.608 83.8118 101.113C85.6447 100.862 87.479 100.452 89.2768 99.9851ZM83.8067 89.4725L82.5675 89.2942L82.0795 89.227C79.0075 88.8156 75.5527 88.6031 73.027 90.5726C72.1049 91.2914 71.586 92.2291 71.3921 93.2364C73.782 92.8822 76.1807 92.6119 78.5864 92.3869L79.2427 92.3266C80.748 92.1909 82.2525 92.048 83.7564 91.8979L84.8252 91.7897L85.8934 91.6788C86.2694 91.6394 88.8031 91.5098 89.2795 91.5969C89.3303 91.1689 89.3967 90.2426 89.5042 89.826C87.7041 89.8871 85.9119 89.7534 84.1225 89.5156L83.8067 89.4725ZM89.5108 71.5451C91.3472 72.6613 94.1452 75.2641 92.1697 78.0313C89.8444 80.4712 86.4964 77.6737 84.8466 76.4085C83.3168 75.4279 81.598 77.9498 83.0174 79.0948C94.9389 87.921 99.777 71.837 90.4396 70.2327C89.4115 70.0559 89.0297 71.1998 89.5108 71.5451ZM92.7971 76.2474L92.8854 76.1994L92.9152 76.1814C92.9668 76.1479 92.934 76.1515 92.8166 76.1922L92.7285 76.2238V76.2861C92.7511 76.2722 92.7752 76.2618 92.7971 76.2474ZM69.279 66.3305L69.2787 66.2758C69.2821 64.7251 70.1853 61.1845 72.4177 61.1845C73.8123 61.1845 74.659 63.5941 74.8056 66.078L74.8107 66.1793C74.8754 67.7236 74.4517 71.0993 72.4177 71.0993C70.3622 71.0993 69.3002 67.9021 69.279 66.3305ZM102.146 65.8442L102.146 65.7894C102.143 64.2387 101.24 60.6981 99.0073 60.6981C97.6476 60.6981 96.8087 62.9887 96.6317 65.4056L96.6194 65.5917C96.5314 67.0839 96.9277 70.6129 99.0073 70.6129C101.063 70.6129 102.125 67.4158 102.146 65.8442ZM70.5527 50.6116C72.3746 50.3347 74.7872 50.8609 75.6367 52.7134C76.015 53.5388 75.5669 54.4514 74.6129 54.4972C72.3073 54.6076 70.2395 54.0945 68.2158 55.5937C67.3449 56.239 66.6126 57.1324 65.9982 58.0237L65.7657 58.3628L65.5731 58.6423C65.1559 59.2557 64.7608 59.9221 64.8225 60.6622C64.8407 60.8814 64.6167 61.0893 64.4039 61.0805C63.0776 61.026 62.9349 59.3632 63.1093 58.3644C63.4337 56.5109 64.3308 54.771 65.5741 53.3695C66.88 51.8978 68.6039 50.9081 70.5527 50.6116ZM95.6462 52.8612C96.9025 52.0536 98.5094 51.7433 99.9812 51.8622C102.883 52.0959 107.751 54.5627 107.11 58.107C106.913 59.2001 105.392 59.777 104.497 59.1705C103.533 58.5185 103.299 57.5052 102.582 56.6531C102.01 55.9724 101.285 55.48 100.509 55.0605C99.7438 54.6467 98.8586 54.396 97.9903 54.3046L97.8458 54.2908C97.3232 54.2463 94.6842 54.2582 95.0716 55.2434C95.1475 55.4362 94.8605 55.5889 94.7287 55.443C93.9197 54.5481 94.836 53.3821 95.6462 52.8612Z" fill="#333333"/>
<path fill-rule="evenodd" clip-rule="evenodd" d="M110.049 71.6776C107.219 74.5061 102.494 75.3177 98.7287 73.8008C89.0603 69.8937 93.7926 57.7074 101.249 54.4348C102.181 54.2102 103.425 53.6775 104.559 53.5566C104.662 53.5079 104.885 53.6488 105.156 53.5156C113.378 54.4034 115.25 66.7481 110.049 71.6776ZM78.8642 72.4016C75.69 76.4737 69.7886 77.73 64.967 75.837C55.4418 72.2088 58.8202 61.4025 65.3372 57.1661C79.1038 52.1628 84.7886 64.8934 78.8642 72.4016ZM58.2155 63.3789C58.2067 63.3749 58.1978 63.3729 58.1887 63.3688C58.2391 63.3474 58.2894 63.326 58.3395 63.3041C58.3232 63.3454 58.3055 63.3862 58.2897 63.4274C58.2649 63.411 58.2433 63.3918 58.2155 63.3789ZM116.602 58.9772C115.825 58.9788 114.702 59.1023 114.059 59.6238C112.472 54.4488 106.616 49.6592 101.523 53.1517C97.5126 54.3992 94.5365 57.1658 92.8451 60.8441C89.7953 59.0895 84.9998 59.8387 82.3552 62.159C80.6232 56.6236 76.3606 54.6853 71.287 54.3992C65.7493 53.5219 60.2298 58.7236 58.5076 62.8965C57.0756 62.7389 54.9359 62.2981 53.5888 63.1528C44.8456 60.9351 29.5596 59.7125 27.7822 60.9446C26.5154 61.4147 25.8203 64.3065 27.5896 64.4625C29.1314 64.2508 27.4096 62.3436 28.9638 62.1355C37.2445 61.639 45.2832 63.252 53.4762 63.9289C54.2077 64.8805 56.5712 65.1989 57.8321 64.8165C55.8462 71.8952 60.1331 76.7111 66.5564 78.1536C76.5024 80.3634 85.1555 71.7579 82.5548 62.8069C85.5677 61.3572 89.0333 61.4194 92.3154 62.1831C86.8309 81.706 119.339 80.8301 114.262 60.2928C117.641 61.9184 118.375 59.3053 116.602 58.9772Z" fill="#333333"/>
</svg>
