<svg width="121" height="121" viewBox="0 0 121 121" fill="none" xmlns="http://www.w3.org/2000/svg">
<g clip-path="url(#clip0_7168_36570)">
<path fill-rule="evenodd" clip-rule="evenodd" d="M112.331 93.137C111.383 91.7333 109.103 81.5464 107.646 79.9796C107.756 73.9618 109.416 53.1266 104.674 43.7607C105.671 42.75 108.322 34.0443 107.646 30.7532C109.879 23.8609 95.5291 12.9141 90.0677 9.95603C64.6851 -3.68361 27.9039 11.3722 16.3605 36.6395C9.42369 51.8563 9.29584 68.8933 8.51158 85.2668C8.41886 88.7715 8.09746 92.3036 8.10104 95.8041C8.60262 98.8801 11.0364 102.013 9.19138 104.57C7.15329 105.983 3.03413 109.424 4.86815 111.376C5.94299 112.273 7.65992 111.753 8.82629 112.615C9.4201 112.948 9.79049 113.677 10.4849 113.788C16.8283 113.547 21.3047 113.526 27.6677 113.269C30.4532 113.177 34.6949 114.358 37.8922 112.007C49.0607 118.232 44.3891 109.201 46.6475 102.771C53.5248 105.101 67.2243 112.532 74.5549 112.772C80.5119 113.51 86.0823 110.033 91.9388 110.825C99.2144 113.533 107.741 114.135 114.405 109.553C116.068 108.352 117.919 109.743 120.015 108.447C124.089 106.494 114.387 95.303 112.331 93.137Z" fill="white"/>
<path fill-rule="evenodd" clip-rule="evenodd" d="M16.3605 36.6395C27.9039 11.3722 64.6851 -3.68361 90.0677 9.95603C95.5291 12.9141 109.879 23.8609 107.646 30.7532C108.157 33.2411 106.767 38.8235 105.627 41.8365C100.335 45.7562 84.8808 44.9426 59.2664 39.396L58.2831 39.1818L49.5363 44.3757L45.9435 57.9051C43.5312 60.2969 41.5819 63.217 40.0957 66.6654C37.6849 64.0118 34.6925 62.8545 31.1185 63.1932C27.6326 64.68 25.0658 66.3001 23.418 68.0534C21.8032 69.7717 21.7709 73.624 23.3211 79.6104L23.418 79.9796L31.1185 82.3822H34.6919L44.5097 94.406L45.9433 106.775C45.6206 112.189 46.8399 116.995 37.8922 112.007C34.6949 114.358 30.4532 113.177 27.6677 113.269C21.3047 113.526 16.8283 113.547 10.4849 113.788C9.79049 113.677 9.4201 112.948 8.82629 112.615C7.65992 111.753 5.94299 112.273 4.86815 111.376C3.03413 109.424 7.15329 105.983 9.19138 104.57C11.0364 102.013 8.60262 98.8801 8.10104 95.8041C8.09746 92.3036 8.41886 88.7715 8.51158 85.2668L8.58059 83.7915C9.30964 67.8728 9.63179 51.3998 16.3605 36.6395ZM105.505 85.63L107.741 77.1433L107.692 78.4198C107.67 79.0131 107.654 79.5365 107.646 79.9796C109.103 81.5464 111.383 91.7333 112.331 93.137L112.536 93.3558C114.956 95.9661 123.967 106.553 120.015 108.447C117.919 109.743 116.068 108.352 114.405 109.553C107.741 114.135 99.2144 113.533 91.9388 110.825C91.0858 110.709 90.2389 110.685 89.396 110.724L89.0487 109.634L97.0103 102.771L105.505 85.63Z" fill="#B4B4B4"/>
<path fill-rule="evenodd" clip-rule="evenodd" d="M104.013 42.9614C103.923 42.4415 104.638 42.0538 104.914 42.5806C106.923 46.4075 107.727 50.8396 108.439 55.0666C109.157 59.3382 109.632 63.6275 109.658 67.9637C109.678 71.2992 109.376 74.6733 108.808 78.0112L108.877 78.2488C109.005 78.6851 109.134 79.121 109.264 79.5567L109.46 80.21C109.839 81.4643 110.198 82.7244 110.587 83.9756C111.399 86.5869 112.255 89.2057 113.303 91.7328C114.326 94.1988 115.57 96.5769 117.048 98.7997C118.473 100.942 120.734 102.754 121.738 105.134C122.088 105.963 121.571 107.06 120.604 106.927C120.542 107.003 120.446 107.058 120.316 107.07C119.565 107.135 118.862 107.073 118.114 107.002C117.696 106.963 117.696 106.39 118.114 106.351C118.432 106.321 118.741 106.295 119.051 106.277C116.91 105.006 115.382 102.523 114.161 100.491C112.591 97.8796 111.406 95.0266 110.44 92.1416C109.447 89.1794 108.744 86.1554 108.18 83.085C108.115 82.7315 108.053 82.3779 107.994 82.0237C107.281 85.0632 106.362 88.0472 105.273 90.915L105.12 91.3142C102.61 97.8356 99.2099 104.42 93.5549 108.73C93.2982 108.926 93.0361 109.111 92.7718 109.293L93.0935 109.478C93.4137 109.661 93.7291 109.837 94.0376 109.981C95.1803 110.515 96.4207 110.922 97.6478 111.211C100.182 111.807 102.844 111.636 105.429 111.72C106.277 111.747 106.76 113.021 105.893 113.435C103.037 114.798 99.9526 114.508 97.0048 113.55C95.5461 113.075 94.1774 112.41 92.9111 111.543C92.3876 111.184 91.7797 110.742 91.2664 110.23C85.6109 113.401 78.5816 113.756 72.287 112.622C69.0158 112.032 65.846 110.956 63.0571 109.115C60.3746 107.344 58.4624 105.102 57.0972 102.198C56.9761 101.94 57.3128 101.62 57.5195 101.871C61.8076 107.09 69.1872 109.268 75.6792 109.682C79.1432 109.904 82.6867 109.72 86.0171 108.681C89.1764 107.696 91.8872 105.889 94.1506 103.486C98.7384 98.6165 101.487 91.9914 103.462 85.6865C105.609 78.8275 106.632 71.611 106.843 64.4328C106.95 60.796 106.815 57.1286 106.246 53.5321C105.68 49.9653 104.631 46.5131 104.013 42.9614ZM39.7208 12.063C40.0245 11.9083 40.2384 12.3109 39.9808 12.5089C34.6336 16.6184 29.8448 21.8291 25.9689 27.3443C18.8209 37.516 14.2366 49.2867 12.1257 61.5176C10.8793 68.7406 10.5538 76.073 10.6783 83.3923C10.7276 86.2998 10.8933 89.1984 11.0776 92.0979L11.2857 95.312C11.3824 96.8095 11.4631 98.2942 11.4007 99.7989L11.3837 100.146C11.2848 101.897 11.4566 103.663 11.0183 105.371C10.7935 106.247 9.56067 106.385 9.11429 105.62C9.02683 105.47 8.94511 105.316 8.86577 105.16C7.81961 106.87 6.4647 108.398 4.9614 109.764C5.67996 109.61 6.40544 109.513 7.15028 109.602C8.33098 109.744 9.39005 110.201 10.1394 111.001C10.8833 110.665 11.6482 110.434 12.5278 110.429C13.1757 110.426 13.6615 111.194 13.2918 111.764C12.5544 112.902 11.5254 113.54 10.3562 114.17C9.52754 114.617 8.53859 114.235 8.23262 113.351L8.21509 113.297C7.87074 112.18 6.03935 112.36 5.17527 112.533L4.92098 112.585C3.31256 112.92 1.74192 113.35 0.103346 112.907C-0.953574 112.621 -1.22981 111.027 -0.210887 110.498C3.00791 108.826 5.71007 106.581 8.48702 104.327C7.87385 102.82 7.52569 101.137 7.12423 99.6053C6.55909 97.4492 6.39397 95.1292 6.1899 92.9144C5.80207 88.7034 5.65415 84.4467 5.69573 80.2191C5.83648 65.9403 8.27339 51.6172 14.4981 38.6873C17.2251 33.0232 20.8076 27.782 25.0422 23.1428C29.2517 18.531 34.1683 14.8892 39.7208 12.063ZM34.7372 81.9902C34.5721 81.7608 34.8945 81.4574 35.1205 81.6061C40.0147 84.8276 43.411 89.7194 45.6025 95.0932C47.7718 100.413 49.1038 106.93 46.9644 112.478C46.6238 113.362 44.9929 113.69 44.8259 112.478C44.0801 107.067 43.9642 101.648 42.3242 96.3878C40.6983 91.173 37.9164 86.3975 34.7372 81.9902ZM30.9425 99.5566C30.9692 99.4611 31.125 99.4776 31.1183 99.5806C30.9957 101.489 30.9126 103.42 30.6732 105.317C30.5568 106.24 30.4029 107.156 30.2719 108.076C30.1376 109.019 30.158 109.972 29.6105 110.778C28.885 111.846 26.9576 111.545 27.0223 110.075C27.067 109.061 27.532 108.41 27.9676 107.52C28.2471 106.95 28.4906 106.36 28.7253 105.767L29.0743 104.878C29.7677 103.116 30.4313 101.383 30.9425 99.5566ZM22.1786 94.5021C22.2083 94.352 22.4499 94.3881 22.4427 94.5378C22.312 97.2385 22.008 99.9088 21.532 102.57C21.315 103.783 21.0619 104.989 20.7942 106.192L20.6787 106.707C20.3924 107.974 20.2077 109.463 19.5663 110.595C18.9254 111.726 17.4037 110.905 17.6009 109.764C17.8312 108.433 18.6463 107.095 19.1202 105.816C19.5575 104.636 19.9398 103.435 20.2971 102.229C21.0491 99.6887 21.6658 97.101 22.1786 94.5021ZM38.4987 102L38.5557 101.941C38.7784 101.699 39.1106 101.86 39.2169 102.116C39.6523 103.165 39.4344 104.402 39.4033 105.516L39.3975 105.759C39.3744 106.887 39.3905 107.944 38.88 108.986C38.2601 110.25 36.6268 109.465 36.5004 108.34C36.3623 107.112 36.9418 105.91 37.316 104.76C37.5537 104.029 37.727 103.269 38.0885 102.606C37.7793 102.659 37.4706 102.766 37.1879 102.844C37.0612 102.878 37.0135 102.692 37.1344 102.649C37.6018 102.483 38.1294 102.358 38.4987 102ZM103.653 105.723C103.504 105.555 103.69 105.332 103.884 105.423C106.211 106.512 108.388 107.221 110.956 107.453C112.069 107.553 112.076 109.305 110.956 109.204C108.276 108.962 105.467 107.758 103.653 105.723ZM21.7676 68.9185C23.8167 64.2995 30.2992 60.202 34.6461 64.4975C34.7276 64.5777 34.6447 64.7528 34.5264 64.7037C31.8226 63.5808 28.5125 65.009 26.6412 67.0516C25.1565 68.6719 24.2645 70.7523 24.0874 72.9451C23.9103 75.1398 24.4339 77.4305 25.8885 79.1281C26.6515 80.0187 27.6819 80.8616 28.8943 80.9687C30.1185 81.0766 31.1389 80.2127 32.2962 79.978C33.1686 79.8013 33.8272 80.3499 33.9127 81.2117C34.1013 83.1138 32.2116 84.3904 30.5735 84.7005C28.8114 85.0338 27.013 84.6696 25.4946 83.7127C20.5907 80.6221 19.5328 73.9566 21.7676 68.9185ZM67.7782 23.6447C68.6693 22.7912 70.185 23.6396 69.8562 24.8571C69.157 27.4481 67.6709 29.638 66.0245 31.7166C64.4404 33.7163 62.7433 35.638 60.9244 37.4266C59.1174 39.2034 57.1541 40.8476 55.0906 42.3162L54.4692 42.7574C53.0068 43.7904 51.4578 44.8352 49.8209 45.5792C49.4256 48.9916 48.6523 52.3585 47.4824 55.5819C46.3557 58.6859 44.9219 61.6856 43.1847 64.4929L42.9353 64.8949C41.3389 67.4588 39.4193 70.3241 36.7103 71.7295C36.6291 71.7719 36.5476 71.7978 36.4673 71.8129C37.0733 72.2178 37.5854 72.7271 37.8898 73.4589C38.2234 74.2602 37.5261 75.0162 36.8577 75.2808C35.4443 75.8404 34.0655 74.8931 32.7949 73.8826C32.7412 74.0037 32.6905 74.1261 32.647 74.2494C32.3629 75.0564 32.2793 75.8811 31.5466 76.4166C31.1985 76.6711 30.7695 76.4434 30.5504 76.1551C29.8321 75.2092 30.5757 73.9206 31.2073 73.1476C31.2948 73.0408 31.3851 72.9393 31.478 72.8418C31.2111 72.6452 30.9507 72.4709 30.6983 72.3371C29.2146 71.5497 27.0152 71.4101 26.1609 73.1531C26.0955 73.287 25.8897 73.2178 25.8897 73.0794C25.8919 70.9383 28.0805 69.7755 29.9798 69.6174C31.3674 69.5021 32.7096 69.9897 33.9586 70.5576L34.1917 70.6649C34.6564 70.8811 35.1353 71.0851 35.5937 71.3133C35.5191 71.1163 35.5203 70.8845 35.6376 70.6546C37.074 67.8435 39.5406 65.5575 41.3194 62.9541C43.0834 60.3712 44.5979 57.6071 45.8068 54.7208C46.9801 51.9193 47.8994 49.0299 48.5422 46.0828C48.3305 46.1266 48.0917 45.9377 48.1068 45.7162C48.1426 45.1803 48.4043 44.6975 48.8638 44.4918C49.3699 41.7197 49.6283 38.9008 49.6132 36.059C49.612 35.8387 49.9305 35.8466 49.9492 36.059C50.1728 38.5856 50.191 41.1369 50.0029 43.6733C51.1982 42.5713 52.4587 41.5236 53.6096 40.3924C55.3413 38.6903 57.0167 36.9426 58.6328 35.1301C60.2816 33.281 61.8401 31.3638 63.2652 29.3353L64.0111 28.2715C65.1578 26.6407 66.3357 25.0269 67.7782 23.6447ZM65.5297 5.43908C75.3644 4.82389 85.8676 6.03511 94.7015 10.6613C99.5531 13.2018 103.303 17.0416 105.983 21.8202C107.582 24.6736 108.796 27.8334 109.256 31.082C109.728 34.4199 109.174 37.3962 107.047 40.0495C106.202 41.1031 104.779 39.9261 104.988 38.8481C106.261 32.2522 104.196 25.7354 100.533 20.2749C95.2184 12.351 85.9369 8.8311 76.9002 7.26093C72.4603 6.48985 67.9571 6.16753 63.4527 6.32438C60.0186 6.44411 56.4958 6.76476 53.2369 7.92257C53.0995 7.97142 53.0448 7.75686 53.1772 7.70634C57.0646 6.21854 61.4041 5.69722 65.5297 5.43908ZM80.1154 20.3537C80.6217 20.0321 81.2411 20.3621 81.4151 20.8838C82.0287 22.7234 80.7427 25.1537 79.8824 26.7457C78.9089 28.5472 77.657 30.2316 76.3642 31.8138C73.7779 34.9781 70.3787 37.6184 66.6485 39.2779C66.4201 39.3797 66.1539 39.1033 66.3635 38.9079C69.2496 36.2146 71.8665 33.3272 74.1318 30.0879C75.2449 28.4962 76.1733 26.8171 77.0598 25.0922C77.8532 23.5486 78.5992 21.3168 80.1154 20.3537ZM96.6557 22.5207C96.9792 21.3885 98.8221 21.5813 98.7458 22.8042C98.5487 25.9635 97.0614 29.1347 95.4453 31.8122C93.7812 34.5692 91.6738 37.0261 89.2582 39.148C89.1392 39.2526 88.9762 39.0915 89.084 38.9734C91.1682 36.687 92.8516 34.0826 94.0983 31.2483C95.3435 28.418 95.8136 25.4649 96.6557 22.5207ZM87.4965 22.0092C87.8489 21.0247 89.536 21.0978 89.4325 22.2719C89.1481 25.4994 87.258 28.8818 85.5074 31.5476C83.6497 34.3759 81.2785 36.8675 78.6284 38.9602C78.5292 39.0385 78.389 38.9087 78.4857 38.8173C80.866 36.5699 82.7963 33.9738 84.3245 31.0782C85.1045 29.6007 85.7587 28.0621 86.2754 26.4728C86.7533 25.0025 86.9777 23.4584 87.4965 22.0092Z" fill="#1B1B1B"/>
<path fill-rule="evenodd" clip-rule="evenodd" d="M60.5766 76.0804C61.1319 74.827 62.6594 73.2271 65.1591 71.2808C65.9178 75.5874 66.0029 78.4048 65.4146 79.7329C64.687 81.3754 62.067 84.3394 60.1457 83.506C58.2244 82.6725 59.2076 79.1708 60.5766 76.0804Z" fill="white"/>
<path fill-rule="evenodd" clip-rule="evenodd" d="M107.189 74.3795C106.732 73.3201 105.477 71.968 103.422 70.3231C102.798 73.9628 102.728 76.3439 103.212 77.4663C103.81 78.8544 105.964 81.3594 107.543 80.655C109.122 79.9507 108.314 76.9913 107.189 74.3795Z" fill="white"/>
<path fill-rule="evenodd" clip-rule="evenodd" d="M75.2701 83.651H96.3039L97.5624 87.1271C87.0984 89.5556 80.0293 89.9883 76.355 88.425L75.2701 83.651Z" fill="white"/>
<path fill-rule="evenodd" clip-rule="evenodd" d="M87.5807 82.7616C90.5477 82.7472 94.9922 82.661 97.9567 82.8358C98.8116 82.8861 99.2331 84.1074 99.293 84.6869C99.8605 90.0724 95.5597 94.3684 90.8111 96.0327C86.405 97.5773 80.5859 97.8694 76.6563 94.9839C74.9489 93.7315 73.6558 91.9953 72.8129 90.0629C72.3579 89.0212 72.0251 87.9412 71.8407 86.8205C71.6994 85.9656 71.4312 84.8138 71.7449 83.9733C72.1759 82.8262 73.3757 82.9076 74.403 82.8885C75.8206 82.8597 77.2382 82.8236 78.6535 82.8071C81.63 82.7733 84.6066 82.7733 87.5807 82.7616ZM95.8326 84.3293L95.8111 84.3298C94.4773 84.4737 79.7502 84.5789 77.4753 84.6291C77.1329 84.6366 76.7737 84.6292 76.4097 84.6196C76.1575 85.3997 76.812 87.0061 77.516 87.2851C78.22 87.5638 84.1731 87.8375 87.6885 87.6771C90.0855 87.5693 96.3035 86.1162 96.3035 85.4929C96.3035 84.8693 96.0386 84.3061 95.8111 84.3298L95.8326 84.3293ZM66.0239 70.5149C66.482 70.2726 66.9104 70.5863 66.9698 71.0576C67.0893 72.0037 66.5898 72.9927 66.5646 73.9671C66.5376 75.009 66.6508 76.0499 66.6159 77.0918C66.5548 78.9115 66.0112 80.7384 64.96 82.237C63.7052 84.0256 60.3955 85.9789 58.816 83.3898C57.6802 81.5282 58.573 78.8131 59.3996 77.0169C60.0478 75.6088 60.9906 74.3069 62.0467 73.1761C62.7495 72.4232 64.2267 70.7273 65.3623 70.8978C65.4059 70.9043 65.4255 70.9567 65.4171 70.9946C65.4095 71.0279 65.3968 71.0573 65.3865 71.0889C65.5507 70.855 65.7574 70.6557 66.0239 70.5149ZM65.1592 71.4927C64.9578 71.7328 64.6841 71.9249 64.4523 72.1598C63.9593 72.6593 63.4693 73.1608 63.0273 73.707C62.2215 74.7025 61.5562 75.8148 61.0287 76.9805C60.3996 78.3699 59.3637 80.7518 60.1024 82.2966C60.4985 83.1244 61.5177 82.976 62.2049 82.573C63.4889 81.8203 64.2464 80.2142 64.6061 78.833C65.0072 77.2923 64.7727 75.7288 64.7801 74.1605C64.7837 73.3595 64.7983 72.3025 65.1592 71.4927ZM102.579 68.0741C102.601 67.4819 103.196 67.1672 103.711 67.4246C104.595 67.866 104.967 68.7625 105.455 69.5846C106.021 70.5379 106.586 71.4915 107.152 72.4448C108.15 74.127 109.513 75.9223 110.016 77.8354C110.759 80.663 108.305 82.7382 105.586 82.1309C102.748 81.4973 101.694 78.197 101.754 75.6191C101.785 74.2697 102.1 72.8993 102.366 71.5815C102.522 70.8061 102.576 69.9639 102.777 69.1864C102.644 68.8185 102.566 68.4464 102.579 68.0741ZM88.1673 70.5128C87.6936 70.1728 88.0696 69.0464 89.082 69.2205C98.2767 70.8002 93.5126 86.6386 81.7731 77.9472C80.3754 76.8197 82.068 74.3363 83.5744 75.3019C85.199 76.5478 88.4958 79.3026 90.7856 76.8999C92.7309 74.175 89.9756 71.612 88.1673 70.5128ZM103.957 71.269C103.844 72.0262 103.674 72.7546 103.595 73.2925C103.285 75.4096 103.065 78.1591 104.815 79.7607C105.555 80.4386 106.842 80.6898 107.703 80.0502C108.962 79.1148 107.64 77.316 107.053 76.3552C106.185 74.9362 105.33 73.5102 104.481 72.0798C104.328 71.8207 104.146 71.5492 103.957 71.269ZM70.2812 60.271C73.2877 59.7848 76.5404 61.765 77.59 64.6192C77.8548 65.3392 77.4149 66.231 76.7844 66.5993C76.0569 67.0241 75.2794 66.8182 74.6596 66.3251C73.8268 65.6628 73.4307 64.5988 72.5159 63.9968C71.742 63.4872 70.7046 63.4604 69.8148 63.6077C67.7223 63.9539 66.0777 65.3043 64.1665 66.0931C63.8985 66.2037 63.7417 65.8601 63.8317 65.6577C64.9893 63.0562 67.4062 60.7358 70.2812 60.271ZM99.4285 60.1533C101.832 59.9471 104.695 60.988 105.455 63.4608C105.473 63.5201 105.411 63.5901 105.349 63.5671C103.895 63.028 102.287 62.7005 100.732 62.9746C99.7312 63.1514 97.7554 63.8599 97.6797 65.0082C97.5626 66.7788 95.5085 67.2144 94.5078 65.8671C93.5346 64.5568 94.372 62.7646 95.4472 61.8175C96.5746 60.8247 97.9414 60.2809 99.4285 60.1533ZM76.3829 50.1186C76.9047 50.7115 77.0843 51.8135 76.3829 52.3811C75.1492 53.3796 73.7852 52.9927 72.3068 53.0772C71.0884 53.1471 69.9174 53.3488 68.7437 53.6842C66.169 54.4201 64.0711 55.7635 61.8721 57.2386C61.5835 57.4321 61.289 57.0631 61.4267 56.7932C62.6961 54.3069 65.1561 52.2645 67.6202 51.0195C68.9353 50.355 70.3745 49.8037 71.8295 49.5508L72.2791 49.4721C73.6698 49.2316 75.3991 49.0005 76.3829 50.1186ZM95.9209 48.4371L96.265 48.5075C100.01 49.2902 104.875 50.8537 106.648 54.5318C106.715 55.0519 106.644 55.1634 106.586 55.2362L106.567 55.2604C106.519 55.3226 106.481 55.4083 106.255 55.4791C106.193 55.4642 106.129 55.4484 106.066 55.4317C105.253 55.2187 104.61 54.9252 103.987 54.6207L103.312 54.2882C102.529 53.9042 101.739 53.5341 100.901 53.2609C99.1146 52.6781 97.2766 52.2675 95.4101 52.0483C95.0055 52.0008 94.616 51.8643 94.3087 51.6303C94.0169 51.4082 93.7941 51.1007 93.6925 50.6919C93.5608 50.1629 93.5986 49.7624 93.8825 49.2852C94.0959 48.9268 94.4013 48.6784 94.7519 48.5357C95.1094 48.3903 95.5163 48.356 95.9209 48.4371Z" fill="#1B1B1B"/>
</g>
<defs>
<clipPath id="clip0_7168_36570">
<rect width="120.29" height="120.29" fill="white" transform="translate(0.355103)"/>
</clipPath>
</defs>
</svg>
